<?xml version="1.0" encoding="iso-8859-1"?>
<!-- Uploaded to: SVG Repo, www.svgrepo.com, Generator: SVG Repo Mixer Tools -->
<!DOCTYPE svg PUBLIC "-//W3C//DTD SVG 1.1//EN" "http://www.w3.org/Graphics/SVG/1.1/DTD/svg11.dtd">
<svg height="800px" width="800px" version="1.1" id="Capa_1" xmlns="http://www.w3.org/2000/svg" xmlns:xlink="http://www.w3.org/1999/xlink" 
	 viewBox="0 0 167.966 167.966" xml:space="preserve">
<g>
	<g>
		<path style="fill:#FAA522;" d="M23,64.059c-4.055,0-7.372,3.317-7.372,7.373v10.598c0,4.055,3.317,7.373,7.372,7.373
			c4.056,0,7.373-3.318,7.373-7.373V71.432C30.373,67.376,27.055,64.059,23,64.059z"/>
		<path style="fill:#FAA522;" d="M39.504,56.985c-2.971,0-5.401,2.431-5.401,5.401v10.854c0,2.971,2.431,5.401,5.401,5.401
			c2.971,0,5.401-2.431,5.401-5.401V62.387C44.905,59.416,42.474,56.985,39.504,56.985z"/>
	</g>
	<path style="fill:#3A568E;" d="M71.613,130.027c0,0-21.888,20.89-24.038,23.347c-2.149,2.458-1.229,10.138,0,13.517
		c1.229,3.379,27.254-17.202,27.254-17.202L71.613,130.027z"/>
	<path style="fill:#3A568E;" d="M69.385,48.008c0,0-64.356,40.473-66.891,42.085c-2.534,1.613-2.765,13.594-2.304,14.976
		c0.461,1.383,71.422-18.431,71.422-18.431L69.385,48.008z"/>
	<path style="fill:#4C70B7;" d="M83.983,0.701v158.51c0,0-7.225-1.229-12.14-6.758c-4.915-5.53-5.529-121.647-6.144-127.177
		C65.085,19.747,75.849,0.701,83.983,0.701z"/>
	<path style="fill:#3A568E;" d="M83.983,134.636v32.63c0,0-3.846,0-6.61,0c-2.765,0,0.922-29.251,1.229-30.787
		C78.909,134.942,81.993,133.407,83.983,134.636z"/>
	<path style="fill:#FFF8A5;" d="M83.983,14.832c-4.768,0-9.528,4.147-11.064,8.14c-1.536,3.994-0.769,4.301,0.768,4.455
		c1.536,0.153,5.542-6.298,10.297-6.298C83.983,21.129,83.983,19.478,83.983,14.832z"/>
	<g>
		<path style="fill:#F58225;" d="M144.966,64.059c4.056,0,7.373,3.317,7.373,7.373v10.598c0,4.055-3.317,7.373-7.373,7.373
			c-4.055,0-7.372-3.318-7.372-7.373V71.432C137.594,67.376,140.912,64.059,144.966,64.059z"/>
		<path style="fill:#F58225;" d="M128.464,56.985c2.971,0,5.401,2.431,5.401,5.401v10.854c0,2.971-2.431,5.401-5.401,5.401
			c-2.972,0-5.402-2.431-5.402-5.401V62.387C123.061,59.416,125.492,56.985,128.464,56.985z"/>
	</g>
	<path style="fill:#2E4575;" d="M96.354,130.027c0,0,21.888,20.89,24.037,23.347c2.15,2.458,1.229,10.138,0,13.517
		c-1.229,3.379-27.253-17.202-27.253-17.202L96.354,130.027z"/>
	<path style="fill:#2E4575;" d="M98.582,48.008c0,0,64.355,40.473,66.89,42.085c2.534,1.613,2.765,13.594,2.305,14.976
		c-0.461,1.383-71.422-18.431-71.422-18.431L98.582,48.008z"/>
	<path style="fill:#3A568E;" d="M83.983,0.701v158.51c0,0,7.226-1.229,12.141-6.758c4.915-5.53,5.529-121.647,6.144-127.177
		C102.881,19.747,92.118,0.701,83.983,0.701z"/>
	<path style="fill:#2E4575;" d="M83.983,134.636v32.63c0,0,3.847,0,6.611,0c2.765,0-0.922-29.251-1.229-30.787
		C89.058,134.942,85.974,133.407,83.983,134.636z"/>
	<path style="fill:#FFF8A5;" d="M83.983,14.832c4.769,0,9.529,4.147,11.065,8.14c1.536,3.994,0.768,4.301-0.768,4.455
		c-1.536,0.153-5.542-6.298-10.298-6.298C83.983,21.129,83.983,19.478,83.983,14.832z"/>
</g>
</svg>