<svg height="212px" width="212px" version="1.1" id="_x36_" xmlns="http://www.w3.org/2000/svg" xmlns:xlink="http://www.w3.org/1999/xlink" viewBox="-25.6 -25.6 563.20 563.20" xml:space="preserve" fill="#ffffff" stroke="#ffffff" stroke-width="5.12"><g id="SVGRepo_bgCarrier" stroke-width="0"></g><g id="SVGRepo_tracerCarrier" stroke-linecap="round" stroke-linejoin="round"></g><g id="SVGRepo_iconCarrier"> <g> <g> <g> <path style="fill:#3a88fe;" d="M250.376,379.789c-1.926,1.217-90.859,83.056-90.859,83.056v22.209l90.859-24.339V379.789z"></path> <path style="fill:#3a88fe;" d="M261.613,379.789c1.926,1.217,90.859,83.056,90.859,83.056v22.209l-90.859-24.339V379.789z"></path> </g> <path style="fill:#3a88fe;" d="M291.965,266.212c-1.05,42.549-3.429,85.238-8.118,117.64c-0.7,4.899-1.469,9.517-2.24,13.926v0.07 c-5.528,32.892-11.757,52.557-17.076,63.613c-3.359,7.138-6.368,10.637-8.538,11.827c-2.169-1.19-5.179-4.689-8.538-11.827 c-5.318-11.057-11.547-30.722-17.076-63.613v-0.07c-0.77-4.409-1.539-9.028-2.239-13.926c-4.689-32.402-7.068-75.091-8.118-117.64 c-1.4-53.816-0.7-107.353-0.28-139.474c0.14-6.998,0.21-12.947,0.21-17.706c0.07-2.659,0.07-4.969,0.07-6.788 c0-20.365,1.82-38.21,4.969-53.047C231.641,17.915,243.888,0,255.995,0c7.348,0,14.696,6.578,20.855,18.615 c7.138,14.066,12.597,35.621,14.416,63.194c0.49,6.439,0.7,13.297,0.7,20.435c0,5.179,0.14,13.576,0.28,24.494 C292.665,158.859,293.365,212.396,291.965,266.212z"></path> <g> <g> <g> <path style="fill:#3a88fe;" d="M173.555,151.861v29.882c0,0.56,0,1.049-0.14,1.609c-0.77,6.438-6.299,11.477-12.947,11.477 h-1.68c-5.249-0.07-9.658-3.289-11.687-7.768c-0.56-1.33-0.91-2.729-0.98-4.199c-0.14-0.35-0.14-0.77-0.14-1.12v-29.812 c0-0.42,0.07-0.84,0.14-1.26c0.56-3.289,3.359-5.739,6.788-5.739h13.716C170.476,144.933,173.555,148.082,173.555,151.861z"></path> <path style="fill:#3a88fe;" d="M100.133,247.072h-1.447c-7.195,0-13.082-5.887-13.082-13.082v-29.863 c0-3.822,3.127-6.95,6.95-6.95h13.727c3.813,0,6.934,3.12,6.934,6.934v29.879C113.215,241.185,107.328,247.072,100.133,247.072 z"></path> </g> <path style="fill:#3a88fe;" d="M226.462,121.139v142.834l-6.438,2.24L9.798,338.784L0,342.213v-32.822 c0,0,39.96-33.171,86.218-71.662c8.818-7.418,17.915-14.906,27.013-22.534c1.05-0.84,2.099-1.68,3.149-2.589 c10.357-8.608,20.785-17.285,30.722-25.543c9.238-7.698,18.125-15.046,26.453-21.974c20.575-17.076,37.371-31.072,46.189-38.35 C223.943,123.239,226.322,121.279,226.462,121.139z"></path> <path style="fill:#3a88fe;" d="M15.4,310.159c57.788-55.188,150.646-116.068,195.631-158.934v56.132L15.4,312.115V310.159z"></path> </g> <g> <g> <path style="fill:#3a88fe;" d="M351.498,194.851h1.447c7.195,0,13.082-5.887,13.082-13.082v-29.863 c0-3.822-3.127-6.95-6.95-6.95h-13.727c-3.813,0-6.934,3.12-6.934,6.933v29.879 C338.415,188.964,344.302,194.851,351.498,194.851z"></path> <path style="fill:#3a88fe;" d="M411.856,247.072h1.447c7.195,0,13.082-5.887,13.082-13.082v-29.863 c0-3.822-3.128-6.95-6.95-6.95h-13.728c-3.813,0-6.934,3.12-6.934,6.934v29.879 C398.774,241.185,404.661,247.072,411.856,247.072z"></path> </g> <path style="fill:#3a88fe;" d="M285.548,121.124C287.099,122.341,512,309.358,512,309.358v32.857l-226.452-78.209V121.124z"></path> <path style="fill:#3a88fe;" d="M496.589,310.159c-57.788-55.188-150.646-116.068-195.631-158.934v56.132l195.631,104.758 V310.159z"></path> </g> </g> <polygon style="fill:#3a88fe;" points="276.534,44.888 264.078,36.873 247.912,36.873 235.455,44.888 237.834,31.072 250.571,24.791 261.488,24.791 274.155,31.072 "></polygon> </g> <path style="opacity:0.06;fill:#874efe;" d="M283.847,383.852c4.688-32.399,7.068-75.084,8.118-117.629L512,342.215v-32.857 c0,0-39.915-33.192-86.212-71.684c0.35-1.177,0.597-2.398,0.597-3.684v-29.862c0-3.823-3.128-6.95-6.95-6.95h-13.727 c-3.814,0-6.934,3.12-6.934,6.933v11.104c-11.462-9.529-22.894-19.034-33.886-28.171c0.721-1.618,1.138-3.397,1.138-5.274v-29.862 c0-3.822-3.128-6.95-6.95-6.95h-13.727c-3.813,0-6.934,3.12-6.934,6.933v13.148c-20.606-17.127-37.378-31.065-46.171-38.364 c-0.14-10.883-0.279-19.261-0.279-24.429c0-7.138-0.21-13.996-0.7-20.435c-1.82-27.573-7.278-49.127-14.416-63.194 C270.692,6.581,263.346,0.003,256,0v473.285c2.165-1.19,5.168-4.683,8.517-11.792l87.956,23.561v-22.209 c0,0-44.104-40.586-70.864-65.018v-0.049C282.378,393.369,283.148,388.75,283.847,383.852z"></path> </g> </g></svg>